<?xml version="1.0" encoding="utf-8"?>
<svg width="128" height="128" id="svg2" version="1.1" xmlns="http://www.w3.org/2000/svg" xmlns:xlink="http://www.w3.org/1999/xlink">
  <defs id="defs4">
    <linearGradient id="linearGradient6420">
      <stop style="stop-color:#000000;stop-opacity:1;" offset="0" id="stop6422"/>
      <stop style="stop-color:#000000;stop-opacity:0;" offset="1" id="stop6424"/>
    </linearGradient>
    <linearGradient id="linearGradient3688-166-749-654">
      <stop id="stop3088" style="stop-color:#181818;stop-opacity:1" offset="0"/>
      <stop id="stop3090" style="stop-color:#181818;stop-opacity:0" offset="1"/>
    </linearGradient>
    <linearGradient id="linearGradient3702-501-757-795">
      <stop id="stop3100" style="stop-color:#181818;stop-opacity:0" offset="0"/>
      <stop id="stop3102" style="stop-color:#181818;stop-opacity:1" offset="0.5"/>
      <stop id="stop3104" style="stop-color:#181818;stop-opacity:0" offset="1"/>
    </linearGradient>
    <radialGradient r="2.5" cy="43.5" cx="4.9929786" gradientTransform="matrix(1.9740983,0,0,1.4,26.451271,-17.402531)" gradientUnits="userSpaceOnUse" id="radialGradient3946" xlink:href="#linearGradient3688-166-749-654"/>
    <radialGradient r="2.5" cy="43.5" cx="4.9929786" gradientTransform="matrix(1.9740983,0,0,1.4,-21.548734,-104.39747)" gradientUnits="userSpaceOnUse" id="radialGradient3948" xlink:href="#linearGradient3688-166-749-654"/>
    <linearGradient gradientTransform="matrix(0.87962965,0,0,1,2.8888916,-0.00253193)" y2="39.999443" x2="25.058096" y1="47.027729" x1="25.058096" gradientUnits="userSpaceOnUse" id="linearGradient3950" xlink:href="#linearGradient3702-501-757-795"/>
    <radialGradient r="35.338131" cy="93.467628" cx="-4.0287771" gradientTransform="matrix(1.4149022,0,0,0.16978827,69.700321,102.13143)" gradientUnits="userSpaceOnUse" id="radialGradient3976" xlink:href="#linearGradient6420"/>
    <linearGradient y2="48.534767" x2="23.99999" y1="6.0395865" x1="23.99999" gradientTransform="matrix(2.7297298,0,0,2.7297298,-14.513506,-14.513489)" gradientUnits="userSpaceOnUse" id="linearGradient3965" xlink:href="#linearGradient3924"/>
    <linearGradient id="linearGradient3924">
      <stop offset="0" style="stop-color:#ffffff;stop-opacity:1" id="stop3926"/>
      <stop offset="0.0632" style="stop-color:#ffffff;stop-opacity:0.23529412" id="stop3928"/>
      <stop offset="0.9506" style="stop-color:#ffffff;stop-opacity:0.15686275" id="stop3930"/>
      <stop offset="1" style="stop-color:#ffffff;stop-opacity:0.39215687" id="stop3932"/>
    </linearGradient>
    <linearGradient gradientUnits="userSpaceOnUse" y2="119" x2="32" y1="1" x1="32" id="linearGradient904" gradientTransform="translate(-7)" xlink:href="#linearGradient902"/>
    <linearGradient id="linearGradient902">
      <stop id="stop898" offset="0" style="stop-color:#770087;stop-opacity:1;"/>
      <stop id="stop900" offset="1" style="stop-color:#452981;stop-opacity:1"/>
    </linearGradient>
  </defs>
  <path d="m 114,118.00114 a 50,6 0 0 1 -100,0 50,6 0 1 1 100,0 z" id="path3041" style="color:#000000;display:inline;overflow:visible;visibility:visible;opacity:0.2;fill:url(#radialGradient3976);fill-opacity:1;fill-rule:nonzero;stroke:none;stroke-width:0.99999994;marker:none;enable-background:accumulate"/>
  <g transform="matrix(2.6999989,0,0,0.55555607,-0.800009,94.890552)" id="g2036" style="display:inline">
    <g transform="matrix(1.052632,0,0,1.285713,-1.263158,-13.42854)" id="g3712" style="opacity:0.4">
      <rect width="4.9259257" height="7" x="36.314819" y="39.997467" id="rect2801-3" style="fill:url(#radialGradient3946);fill-opacity:1;stroke:none;stroke-width:1"/>
      <rect width="4.9259257" height="7" x="-11.685188" y="-46.997467" transform="scale(-1)" id="rect3696-6" style="fill:url(#radialGradient3948);fill-opacity:1;stroke:none;stroke-width:1"/>
      <rect width="24.629629" height="7.0000005" x="11.685188" y="39.997467" id="rect3700-7" style="fill:url(#linearGradient3950);fill-opacity:1;stroke:none;stroke-width:1"/>
    </g>
  </g>
  <rect width="93" height="117" rx="5" ry="5" x="17.5" y="1.5000637" id="rect4897" style="stroke: none; opacity: 1; vector-effect: none; fill-opacity: 1; stroke-width: 1; stroke-linecap: butt; stroke-linejoin: miter; stroke-miterlimit: 4; stroke-dasharray: none; stroke-dashoffset: 0; stroke-opacity: 1; fill: rgb(240, 128, 128);"/>
  <rect style="opacity: 0.5; fill: none; stroke: url('#linearGradient904'); stroke-width: 1; vector-effect: none; fill-opacity: 1; stroke-linecap: butt; stroke-linejoin: miter; stroke-miterlimit: 4; stroke-dasharray: none; stroke-dashoffset: 0; stroke-opacity: 0;" id="rect3993" y="1.5000026" x="17.5" ry="5" rx="5" height="117" width="93"/>
  <rect style="fill: none; stroke: url('#linearGradient3965'); stroke-width: 1; stroke-linecap: round; stroke-linejoin: round; stroke-miterlimit: 4; stroke-dasharray: none; stroke-dashoffset: 0; opacity: 0.5; vector-effect: none; fill-opacity: 1; stroke-opacity: 0.17;" id="rect6741-5-0-2-3" y="2.5000026" x="18.5" ry="4" rx="4" height="115" width="91"/>
  <rect x="26.91" y="18.65" width="70.485" height="11.119" style="fill: rgb(216, 216, 216); stroke-opacity: 0.07; stroke-miterlimit: 1.8; paint-order: stroke; stroke: rgb(255, 255, 255);"/>
  <rect x="19.1" y="45.507" width="49" height="11.119" style="fill: rgb(216, 216, 216); stroke-miterlimit: 1.8; stroke: rgb(255, 255, 255); paint-order: fill; stroke-opacity: 0; stroke-width: 0px;" transform="matrix(0.999996, 0.002947, 0, 1.000004, 8.374772, -6.567882)"/>
  <rect x="25.712" y="45.507" width="65.962" height="11.119" style="fill: rgb(216, 216, 216); stroke-opacity: 0.07; stroke-miterlimit: 1.8; paint-order: stroke; stroke: rgb(255, 255, 255);" transform="matrix(0.999996, 0.002947, 0, 1.000004, 2.140878, 16.247483)"/>
  <rect x="29.238" y="45.507" width="75.008" height="11.119" style="fill: rgb(216, 216, 216); stroke-opacity: 0.07; stroke-miterlimit: 1.8; paint-order: stroke; stroke: rgb(255, 255, 255);" transform="matrix(0.999996, 0.002947, 0, 1.000004, -1.573945, 36.17587)"/>
  <g transform="matrix(0.172887, 0, 0, 0.172884, 17.046481, -114.526134)" style="transform-origin: 19.2869px 173.526px;">
    <g>
      <circle style="fill: rgb(154, 115, 115); paint-order: fill;" cx="266.311" cy="80.743" r="80.743"/>
      <path style="fill: rgb(255, 255, 255); paint-order: stroke markers; fill-rule: evenodd;" d="M196.295,104.182c-2.008-2.008-5.234-2.032-7.287-0.098c0.92,3.055,2.039,6.061,3.329,9.012&#10;&#9;&#9;&#9;c1.424,0.071,2.871-0.42,3.958-1.508C198.341,109.541,198.341,106.228,196.295,104.182z M272.157,28.321&#10;&#9;&#9;&#9;c-2.045-2.045-5.361-2.047-7.405-0.002c-2.045,2.044-2.045,5.361,0,7.407c2.045,2.045,5.36,2.045,7.405,0&#10;&#9;&#9;&#9;C274.202,33.68,274.201,30.366,272.157,28.321z M221.294,79.184c-2.045-2.044-5.36-2.046-7.405-0.001&#10;&#9;&#9;&#9;c-2.045,2.046-2.044,5.361,0,7.407c2.045,2.044,5.361,2.044,7.405,0C223.339,84.545,223.339,81.228,221.294,79.184z M289.653,3.44&#10;&#9;&#9;&#9;c-1.936,2.052-1.911,5.279,0.097,7.287c2.045,2.044,5.361,2.044,7.406,0c1.087-1.087,1.578-2.534,1.508-3.958&#10;&#9;&#9;&#9;C295.715,5.48,292.708,4.36,289.653,3.44z M276.912,8.078c-2.045-2.044-5.361-2.046-7.405,0c-2.044,2.044-2.044,5.36,0.001,7.405&#10;&#9;&#9;&#9;c2.046,2.045,5.359,2.045,7.404,0C278.957,13.437,278.958,10.122,276.912,8.078z M251.914,33.077&#10;&#9;&#9;&#9;c-2.045-2.046-5.359-2.047-7.405-0.002c-2.046,2.045-2.044,5.361,0.001,7.407c2.045,2.045,5.359,2.044,7.404-0.001&#10;&#9;&#9;&#9;C253.96,38.435,253.96,35.121,251.914,33.077z M292.428,23.593c-2.043-2.044-5.358-2.044-7.404,0&#10;&#9;&#9;&#9;c-2.045,2.044-2.043,5.361,0,7.406c2.046,2.044,5.359,2.044,7.404,0C294.473,28.954,294.473,25.637,292.428,23.593z&#10;&#9;&#9;&#9; M216.566,99.455c-2.044-2.044-5.359-2.044-7.403,0c-2.047,2.045-2.045,5.361-0.001,7.405c2.045,2.044,5.359,2.044,7.405,0&#10;&#9;&#9;&#9;C218.611,104.815,218.611,101.499,216.566,99.455z M211.812,119.698c-2.044-2.045-5.359-2.045-7.405,0&#10;&#9;&#9;&#9;c-2.045,2.044-2.043,5.36,0.001,7.404c2.045,2.045,5.359,2.045,7.403,0C213.857,125.057,213.857,121.743,211.812,119.698z&#10;&#9;&#9;&#9; M236.81,94.699c-2.044-2.045-5.36-2.045-7.405,0c-2.045,2.044-2.045,5.361,0,7.406c2.046,2.044,5.361,2.044,7.405,0&#10;&#9;&#9;&#9;C238.855,100.061,238.855,96.745,236.81,94.699z M241.564,74.456c-2.044-2.043-5.36-2.043-7.405,0.001&#10;&#9;&#9;&#9;c-2.044,2.046-2.043,5.36,0,7.404c2.046,2.044,5.361,2.046,7.405,0C243.609,79.816,243.609,76.501,241.564,74.456z M267.43,48.592&#10;&#9;&#9;&#9;c-2.043-2.044-5.359-2.045-7.404,0c-2.044,2.044-2.044,5.361,0,7.404c2.045,2.046,5.359,2.046,7.405,0&#10;&#9;&#9;&#9;C269.476,53.951,269.476,50.636,267.43,48.592z M236.398,17.559c-2.044-2.044-5.359-2.044-7.405,0&#10;&#9;&#9;&#9;c-2.044,2.045-2.044,5.361,0,7.406c2.046,2.044,5.361,2.044,7.405,0C238.442,22.918,238.442,19.604,236.398,17.559z&#10;&#9;&#9;&#9; M336.299,57.276c2.014,2.013,5.251,2.033,7.302,0.083c-0.921-3.049-2.038-6.05-3.327-8.996c-1.429-0.073-2.882,0.415-3.975,1.508&#10;&#9;&#9;&#9;C334.255,51.916,334.255,55.231,336.299,57.276z M261.125,0.188c-2.016,0.128-4.025,0.32-6.025,0.599&#10;&#9;&#9;&#9;C256.999,1.879,259.42,1.679,261.125,0.188z M191.524,50.262c-0.804,1.975-1.508,3.977-2.148,5.999&#10;&#9;&#9;&#9;c0.313-0.202,0.611-0.432,0.885-0.705C191.695,54.122,192.101,52.068,191.524,50.262z M235.83,5.954&#10;&#9;&#9;&#9;c1.807,0.577,3.86,0.171,5.294-1.262c0.273-0.273,0.504-0.572,0.704-0.884C239.809,4.45,237.805,5.151,235.83,5.954z&#10;&#9;&#9;&#9; M346.268,91.957c0.278-2.001,0.47-4.012,0.601-6.027C345.377,87.635,345.176,90.054,346.268,91.957z M341.088,111.251&#10;&#9;&#9;&#9;c0.815-2.001,1.528-4.031,2.176-6.078c-0.329,0.205-0.645,0.441-0.931,0.727C340.886,107.35,340.483,109.431,341.088,111.251z&#10;&#9;&#9;&#9; M287.672,43.837c-2.044-2.044-5.358-2.046-7.404,0c-2.044,2.044-2.044,5.361,0,7.405c2.046,2.044,5.36,2.043,7.404-0.001&#10;&#9;&#9;&#9;C289.718,49.195,289.718,45.881,287.672,43.837z M186.355,69.528c-0.279,2.002-0.471,4.013-0.599,6.028&#10;&#9;&#9;&#9;C187.246,73.852,187.446,71.431,186.355,69.528z M201.051,83.939c-2.045-2.044-5.361-2.045-7.405-0.001&#10;&#9;&#9;&#9;c-2.045,2.045-2.045,5.361,0.001,7.407c2.045,2.044,5.359,2.044,7.404-0.002C203.095,89.299,203.096,85.983,201.051,83.939z&#10;&#9;&#9;&#9; M205.776,63.667c-2.044-2.046-5.358-2.044-7.403,0c-2.045,2.045-2.047,5.36-0.001,7.404c2.046,2.046,5.36,2.045,7.405,0&#10;&#9;&#9;&#9;C207.822,69.027,207.823,65.713,205.776,63.667z M256.641,12.804c-2.046-2.044-5.36-2.044-7.404,0&#10;&#9;&#9;&#9;c-2.045,2.045-2.046,5.361,0,7.405c2.044,2.045,5.36,2.044,7.405,0C258.686,18.165,258.686,14.85,256.641,12.804z M210.533,43.425&#10;&#9;&#9;&#9;c-2.046-2.045-5.361-2.044-7.405,0c-2.046,2.045-2.045,5.358,0.001,7.404c2.044,2.045,5.358,2.045,7.402,0&#10;&#9;&#9;&#9;C212.576,48.785,212.578,45.469,210.533,43.425z M226.05,58.94c-2.045-2.044-5.361-2.044-7.405,0&#10;&#9;&#9;&#9;c-2.046,2.044-2.045,5.361,0,7.406c2.045,2.045,5.359,2.045,7.405,0C228.094,64.301,228.094,60.986,226.05,58.94z M323.461,54.626&#10;&#9;&#9;&#9;c-2.045-2.044-5.36-2.044-7.405,0s-2.045,5.36,0.001,7.406c2.044,2.044,5.359,2.044,7.404,0&#10;&#9;&#9;&#9;C325.505,59.986,325.505,56.67,323.461,54.626z M312.672,18.838c-2.045-2.044-5.36-2.044-7.406,0&#10;&#9;&#9;&#9;c-2.044,2.045-2.044,5.361,0,7.405c2.046,2.044,5.361,2.044,7.406,0C314.716,24.198,314.716,20.883,312.672,18.838z&#10;&#9;&#9;&#9; M283.358,141.248c-2.044-2.045-5.361-2.045-7.405,0c-2.045,2.044-2.045,5.361,0,7.405c2.045,2.044,5.361,2.045,7.406,0&#10;&#9;&#9;&#9;C285.404,146.609,285.402,143.293,283.358,141.248z M338.977,70.142c-2.045-2.044-5.359-2.044-7.404,0&#10;&#9;&#9;&#9;c-2.045,2.045-2.046,5.36,0,7.405c2.045,2.044,5.36,2.044,7.405,0C341.023,75.502,341.023,72.187,338.977,70.142z M313.978,95.141&#10;&#9;&#9;&#9;c-2.046-2.046-5.36-2.046-7.404,0c-2.045,2.044-2.046,5.359,0,7.404c2.044,2.045,5.361,2.045,7.405,0.001&#10;&#9;&#9;&#9;C316.023,100.5,316.023,97.185,313.978,95.141z M318.705,74.87c-2.044-2.046-5.358-2.046-7.404,0&#10;&#9;&#9;&#9;c-2.044,2.044-2.045,5.358-0.001,7.404c2.045,2.044,5.361,2.044,7.405,0C320.751,80.228,320.75,76.915,318.705,74.87z&#10;&#9;&#9;&#9; M267.843,125.732c-2.046-2.045-5.36-2.045-7.405,0c-2.045,2.044-2.045,5.36,0,7.406c2.045,2.044,5.361,2.044,7.405,0&#10;&#9;&#9;&#9;C269.888,131.094,269.888,127.777,267.843,125.732z M263.114,146.003c-2.044-2.045-5.358-2.045-7.402,0&#10;&#9;&#9;&#9;c-2.047,2.045-2.047,5.36-0.002,7.405c2.046,2.044,5.36,2.045,7.407,0C265.161,151.364,265.161,148.049,263.114,146.003z&#10;&#9;&#9;&#9; M329.495,110.656c-2.045-2.045-5.358-2.045-7.404,0c-2.046,2.045-2.046,5.361-0.001,7.405c2.044,2.044,5.36,2.044,7.405,0&#10;&#9;&#9;&#9;C331.541,116.017,331.539,112.701,329.495,110.656z M334.221,90.385c-2.044-2.044-5.358-2.045-7.404,0&#10;&#9;&#9;&#9;c-2.044,2.044-2.045,5.36,0,7.405c2.046,2.044,5.362,2.044,7.407,0C336.268,95.747,336.267,92.43,334.221,90.385z&#10;&#9;&#9;&#9; M291.471,156.765c-0.287,0.287-0.522,0.602-0.729,0.931c2.047-0.648,4.079-1.361,6.078-2.177&#10;&#9;&#9;&#9;C294.999,154.915,292.918,155.316,291.471,156.765z M271.497,161.299c2.016-0.129,4.027-0.321,6.03-0.6&#10;&#9;&#9;&#9;C275.624,159.607,273.201,159.808,271.497,161.299z M303.63,136.522c-2.045-2.045-5.359-2.044-7.404,0&#10;&#9;&#9;&#9;c-2.045,2.044-2.045,5.359,0,7.404c2.045,2.044,5.359,2.045,7.404,0.001C305.675,141.883,305.675,138.566,303.63,136.522z&#10;&#9;&#9;&#9; M288.113,121.004c-2.044-2.044-5.36-2.043-7.405,0.001c-2.044,2.045-2.044,5.36,0,7.404c2.047,2.045,5.361,2.047,7.405,0.001&#10;&#9;&#9;&#9;C290.158,126.366,290.159,123.051,288.113,121.004z M242.844,150.73c-2.044-2.045-5.358-2.044-7.404,0.001&#10;&#9;&#9;&#9;c-1.093,1.092-1.582,2.545-1.508,3.974c2.945,1.289,5.947,2.408,8.996,3.328C244.879,155.982,244.857,152.743,242.844,150.73z&#10;&#9;&#9;&#9; M282.946,64.107c-2.044-2.045-5.361-2.046-7.405,0c-2.045,2.044-2.045,5.361,0,7.405c2.045,2.045,5.361,2.046,7.406,0&#10;&#9;&#9;&#9;C284.993,69.468,284.99,66.153,282.946,64.107z M227.328,135.214c-2.045-2.044-5.36-2.044-7.405,0&#10;&#9;&#9;&#9;c-2.046,2.044-2.044,5.36,0,7.405c2.046,2.044,5.361,2.047,7.405,0.001C229.374,140.575,229.373,137.259,227.328,135.214z&#10;&#9;&#9;&#9; M252.326,110.217c-2.045-2.047-5.361-2.047-7.405-0.002c-2.046,2.045-2.046,5.361,0.001,7.407&#10;&#9;&#9;&#9;c2.045,2.045,5.361,2.045,7.405,0.001C254.372,115.578,254.372,112.262,252.326,110.217z M232.084,114.971&#10;&#9;&#9;&#9;c-2.046-2.045-5.361-2.045-7.405-0.001c-2.047,2.046-2.045,5.361,0,7.405c2.044,2.045,5.36,2.047,7.405,0.001&#10;&#9;&#9;&#9;C234.128,120.332,234.128,117.017,232.084,114.971z M257.082,89.973c-2.046-2.045-5.362-2.045-7.407-0.001&#10;&#9;&#9;&#9;c-2.044,2.045-2.043,5.36,0.003,7.405c2.044,2.046,5.359,2.046,7.405,0.001C259.127,95.334,259.127,92.018,257.082,89.973z&#10;&#9;&#9;&#9; M307.945,39.109c-2.046-2.045-5.361-2.045-7.406-0.001c-2.045,2.045-2.043,5.361,0.001,7.405c2.044,2.046,5.36,2.047,7.405,0.002&#10;&#9;&#9;&#9;C309.99,44.471,309.99,41.155,307.945,39.109z M298.463,79.625c-2.046-2.045-5.359-2.046-7.404-0.001&#10;&#9;&#9;&#9;c-2.045,2.045-2.045,5.36,0,7.405c2.045,2.044,5.358,2.044,7.404-0.001C300.509,84.984,300.508,81.669,298.463,79.625z&#10;&#9;&#9;&#9; M272.598,105.489c-2.044-2.044-5.36-2.044-7.405,0c-2.044,2.045-2.044,5.361,0,7.405c2.045,2.044,5.36,2.044,7.405,0&#10;&#9;&#9;&#9;C274.643,110.85,274.643,107.533,272.598,105.489z M247.6,130.488c-2.045-2.044-5.36-2.044-7.404,0&#10;&#9;&#9;&#9;c-2.046,2.044-2.046,5.36,0,7.405c2.044,2.044,5.359,2.044,7.404-0.001C249.644,135.848,249.644,132.532,247.6,130.488z&#10;&#9;&#9;&#9; M328.188,34.355c-2.045-2.047-5.359-2.047-7.405-0.002c-2.045,2.046-2.045,5.361,0.001,7.407&#10;&#9;&#9;&#9;c2.045,2.045,5.361,2.045,7.406,0.001C330.233,39.715,330.233,36.4,328.188,34.355z M303.19,59.353&#10;&#9;&#9;&#9;c-2.047-2.046-5.361-2.046-7.405-0.001c-2.045,2.044-2.046,5.361,0,7.405c2.044,2.046,5.36,2.046,7.405,0.001&#10;&#9;&#9;&#9;C305.235,64.713,305.234,61.399,303.19,59.353z"/>
      <rect x="181.653" y="75.883" transform="matrix(0.7071 0.7071 -0.7071 0.7071 135.0939 -164.6611)" style="fill: rgb(40, 44, 141);" width="169.317" height="9.721"/>
    </g>
    <polygon style="fill: rgb(5, 25, 37);" points="269.897,159.853 187.203,77.159 16.605,280.053 67.002,330.449 &#9;"/>
    <rect x="8.602" y="302.343" transform="matrix(0.7071 0.7071 -0.7071 0.7071 230.9918 66.8624)" style="fill:#1E252B;" width="52.367" height="19.846"/>
    <rect x="6.756" y="315.146" transform="matrix(0.7071 0.7071 -0.7071 0.7071 238.0402 83.8693)" style="fill: rgb(112, 122, 129);" width="22.055" height="28.244"/>
    <path style="fill: rgb(112, 122, 129);" d="M147.462,224.049c-6.753,6.752-17.702,6.752-24.455-0.001c-6.753-6.753-6.753-17.701,0-24.455&#10;&#9;&#9;l31.52-31.518c6.753-6.754,17.702-6.754,24.454-0.001c6.754,6.754,6.755,17.703,0,24.456L147.462,224.049z"/>
    <path style="fill: rgb(40, 44, 141);" d="M174.905,188.454c4.503-4.503,4.503-11.803,0-16.306c-4.501-4.501-11.8-4.501-16.304,0.002&#10;&#9;&#9;c-4.502,4.5-4.502,11.8,0,16.302C163.104,192.955,170.403,192.955,174.905,188.454z"/>
    <rect x="159.356" y="115.683" transform="matrix(0.7071 0.7071 -0.7071 0.7071 153.5572 -120.0869)" style="fill: rgb(40, 44, 141);" width="124.761" height="19.269"/>
    <rect x="31.735" y="262.083" transform="matrix(0.7071 0.7071 -0.7071 0.7071 213.2879 24.1168)" style="fill: rgb(40, 44, 141);" width="91.595" height="14.876"/>
  </g>
</svg>